# xmcd
#
# Track frame offsets:
#	150
#	14486
#	28696
#	43458
#	57900
#	72927
#	87220
#	102470
#	117218
#	132672
#
# Disc length: 1965 seconds
#
# Revision: 0
# Processed by: cddbd v1.5.2PL0 Copyright (c) Steve Scherf et al.
# Submitted via: EasyCDDAExtractor 16.0.8.2
#
DISCID=9107ab0a
DTITLE=Συλλογικός δίσκος - Ιστορία ρεμπέτικου και λαϊκού 05-1
DYEAR=2007
DGENRE=Ποικίλη
TTITLE0=Περδικόπουλος Δημήτρης-Παπαϊωάννου Γ. - Ψαροπούλα [Γ. Παπαϊωάννου]
TTITLE1=Μοσχονάς Οδυσσέας - Στα πεύκα και στα έλατα [Γ. Παπαϊωάννου]
TTITLE2=Παπαϊωάννου Γιάννης-Μοσχονάς Οοδυσσέας - Ο Παναγής [Γ. Παπαϊωάννου]
TTITLE3=Γεωργακοπούλου Ιωάννα-Περπινιάδης Στ. - Μαυρομάτα [Γ. Μητσάκης]
TTITLE4=Μαυρίδης Χαράλαμπος-Κηρομύτης Στέλιος - Εγώ ρεμπέτης ήμουνα [Παν.Τούντ
TTITLE4=ας-Στέλ.Χρυσίνης]
TTITLE5=Παπαϊωάννου Γιάννης-Ποτοσίδης Ηλίας - Απόψε έλα κοντά μου [Γ. Παπαϊωάν
TTITLE5=νου]
TTITLE6=Γεωργακοπούλου Ιωάννα-Χιώτης Μανώλης - Το ρολογάκι που φορείς [Παν. Το
TTITLE6=ύντας-Κ.Κοφινιώτης]
TTITLE7=Βαμβακάρης Μάρκος - Μπουζούκι γλέντι του ντουνιά [Μ. Βαμβακάρης]
TTITLE8=Τσαουσάκης Πρόδρομος-Γεωργακοπούλου Ι. - Ως πότε πια τέτοια ζωή [Β.Τσι
TTITLE8=τσάνης-Μ.Μπακάλης]
TTITLE9=Χασκίλ Στέλλα - Ψαράς θα γίνω στη στεριά [Απ. Καλδάρας]
EXTD=
EXTT0=
EXTT1=
EXTT2=
EXTT3=
EXTT4=
EXTT5=
EXTT6=
EXTT7=
EXTT8=
EXTT9=
PLAYORDER=
